# xmcd
#
# Track frame offsets: 
#        150
#        16907
#        31660
#        49475
#        63057
#        81842
#        98375
#        114587
#        133617
#        156875
#        179190
#        195265
#        220777
#        235627
#
# Disc length: 3390 seconds
#
# Revision: 1
# Processed by: cddbd v1.5.2PL0 Copyright (c) Steve Scherf et al.
# Submitted via: ExactAudioCopyFreeDBPlugin 1.0
#
DISCID=ac0d3c0e
DTITLE=Faith Hill - There You'll Be
DYEAR=2001
DGENRE=Country
TTITLE0=There You'll Be
TTITLE1=This Kiss
TTITLE2=Breathe [Tin Tin Out radio mix]
TTITLE3=The Way You Love Me [Love To Infinity remix]
TTITLE4=Let Me Let Go
TTITLE5=Piece Of My Heart
TTITLE6=If My Heart Had Wings
TTITLE7=There Will Come A Day
TTITLE8=Love Will Always Win
TTITLE9=My Wild Frontier
TTITLE10=You Give Me Love
TTITLE11=Somewhere Down The Road
TTITLE12=Over The Rainbow
TTITLE13=Breathe
EXTD=
EXTT0=
EXTT1=
EXTT2=
EXTT3=
EXTT4=
EXTT5=
EXTT6=
EXTT7=
EXTT8=
EXTT9=
EXTT10=
EXTT11=
EXTT12=
EXTT13=
PLAYORDER=
